<?xml version="1.0" standalone="yes"?>

<svg version="1.1" viewBox="0.0 0.0 544.1128608923884 551.7060367454068" fill="none" stroke="none" stroke-linecap="square" stroke-miterlimit="10" xmlns="http://www.w3.org/2000/svg" xmlns:xlink="http://www.w3.org/1999/xlink"><clipPath id="p.0"><path d="m0 0l544.11285 0l0 551.70605l-544.11285 0l0 -551.70605z" clip-rule="nonzero"></path></clipPath><g clip-path="url(#p.0)"><path fill="#000000" fill-opacity="0.0" d="m0 0l544.11285 0l0 551.70605l-544.11285 0z" fill-rule="evenodd"></path><path fill="#ffd966" d="m18.346457 474.51968l252.44096 -474.51968l252.44092 474.51968z" fill-rule="evenodd"></path><path stroke="#bf9000" stroke-width="1.0" stroke-linejoin="round" stroke-linecap="butt" d="m18.346457 474.51968l252.44096 -474.51968l252.44092 474.51968z" fill-rule="evenodd"></path><path fill="#5b0f00" d="m0 468.4018l0 0c0 -5.7085266 4.6276584 -10.336182 10.336164 -10.336182l520.90247 0c2.741333 0 5.3703613 1.0889893 7.308777 3.0274048c1.9384155 1.938385 3.0274048 4.567444 3.0274048 7.308777l0 41.343414c0 5.7085266 -4.6276855 10.336151 -10.336182 10.336151l-520.90247 0c-5.708506 0 -10.336164 -4.6276245 -10.336164 -10.336151z" fill-rule="evenodd"></path><path stroke="#783f04" stroke-width="1.0" stroke-linejoin="round" stroke-linecap="butt" d="m0 468.4018l0 0c0 -5.7085266 4.6276584 -10.336182 10.336164 -10.336182l520.90247 0c2.741333 0 5.3703613 1.0889893 7.308777 3.0274048c1.9384155 1.938385 3.0274048 4.567444 3.0274048 7.308777l0 41.343414c0 5.7085266 -4.6276855 10.336151 -10.336182 10.336151l-520.90247 0c-5.708506 0 -10.336164 -4.6276245 -10.336164 -10.336151z" fill-rule="evenodd"></path><path fill="#a61c00" d="m189.17061 264.4672l0 0c0 -23.065506 18.698273 -41.76378 41.76378 -41.76378l0 0c11.076447 0 21.699219 4.4001007 29.531433 12.23233c7.832245 7.8322296 12.23233 18.455002 12.23233 29.531448l0 0c0 23.06549 -18.698273 41.763763 -41.763763 41.763763l0 0c-23.065506 0 -41.76378 -18.698273 -41.76378 -41.763763z" fill-rule="evenodd"></path><path stroke="#a61c00" stroke-width="1.0" stroke-linejoin="round" stroke-linecap="butt" d="m189.17061 264.4672l0 0c0 -23.065506 18.698273 -41.76378 41.76378 -41.76378l0 0c11.076447 0 21.699219 4.4001007 29.531433 12.23233c7.832245 7.8322296 12.23233 18.455002 12.23233 29.531448l0 0c0 23.06549 -18.698273 41.763763 -41.763763 41.763763l0 0c-23.065506 0 -41.76378 -18.698273 -41.76378 -41.763763z" fill-rule="evenodd"></path><path fill="#a61c00" d="m95.08399 395.61942l0 0c0 -23.06549 18.69828 -41.763763 41.76377 -41.763763l0 0c11.076447 0 21.699234 4.4000854 29.531464 12.23233c7.8322296 7.8322144 12.232315 18.454987 12.232315 29.531433l0 0c0 23.06549 -18.698273 41.763794 -41.76378 41.763794l0 0c-23.06549 0 -41.76377 -18.698303 -41.76377 -41.763794z" fill-rule="evenodd"></path><path stroke="#a61c00" stroke-width="1.0" stroke-linejoin="round" stroke-linecap="butt" d="m95.08399 395.61942l0 0c0 -23.06549 18.69828 -41.763763 41.76377 -41.763763l0 0c11.076447 0 21.699234 4.4000854 29.531464 12.23233c7.8322296 7.8322144 12.232315 18.454987 12.232315 29.531433l0 0c0 23.06549 -18.698273 41.763794 -41.76378 41.763794l0 0c-23.06549 0 -41.76377 -18.698303 -41.76377 -41.763794z" fill-rule="evenodd"></path><path fill="#a61c00" d="m303.42258 395.61942l0 0c0 -23.06549 18.698273 -41.763763 41.763763 -41.763763l0 0c11.076447 0 21.69925 4.4000854 29.531464 12.23233c7.8322144 7.8322144 12.23233 18.454987 12.23233 29.531433l0 0c0 23.06549 -18.698273 41.763794 -41.763794 41.763794l0 0c-23.06549 0 -41.763763 -18.698303 -41.763763 -41.763794z" fill-rule="evenodd"></path><path stroke="#a61c00" stroke-width="1.0" stroke-linejoin="round" stroke-linecap="butt" d="m303.42258 395.61942l0 0c0 -23.06549 18.698273 -41.763763 41.763763 -41.763763l0 0c11.076447 0 21.69925 4.4000854 29.531464 12.23233c7.8322144 7.8322144 12.23233 18.454987 12.23233 29.531433l0 0c0 23.06549 -18.698273 41.763794 -41.763794 41.763794l0 0c-23.06549 0 -41.763763 -18.698303 -41.763763 -41.763794z" fill-rule="evenodd"></path><path fill="#a61c00" d="m229.02362 96.54068l0 0c0 -23.065498 18.698288 -41.76378 41.763794 -41.76378l0 0c11.076416 0 21.699219 4.4001007 29.531433 12.23233c7.832245 7.8322296 12.23233 18.45501 12.23233 29.531448l0 0c0 23.065498 -18.698273 41.76378 -41.763763 41.76378l0 0c-23.065506 0 -41.763794 -18.69828 -41.763794 -41.76378z" fill-rule="evenodd"></path><path stroke="#a61c00" stroke-width="1.0" stroke-linejoin="round" stroke-linecap="butt" d="m229.02362 96.54068l0 0c0 -23.065498 18.698288 -41.76378 41.763794 -41.76378l0 0c11.076416 0 21.699219 4.4001007 29.531433 12.23233c7.832245 7.8322296 12.23233 18.45501 12.23233 29.531448l0 0c0 23.065498 -18.698273 41.76378 -41.763763 41.76378l0 0c-23.065506 0 -41.763794 -18.69828 -41.763794 -41.76378z" fill-rule="evenodd"></path></g></svg>

